<svg width="93" height="28" viewBox="0 0 93 28" fill="none" xmlns="http://www.w3.org/2000/svg">
<path d="M12.9182 5.57714L13.6013 5.43286C13.7744 5.43286 13.9202 5.46893 14.0203 5.54107C14.1205 5.61321 14.1752 5.68535 14.1752 5.74848C14.1752 5.8116 14.157 5.91079 14.1296 6.02802C14.1023 6.14524 13.8473 7.35359 13.3736 9.63501C12.9 11.9164 12.5539 13.6207 12.3353 14.7389C13.3919 13.3141 14.6306 11.5647 16.0424 9.48171C17.4543 7.39867 18.2832 6.019 18.52 5.33367C18.5928 5.11725 18.693 4.95494 18.8114 4.83771C18.9299 4.72048 19.0392 4.64834 19.1303 4.63031C19.2213 4.61227 19.3671 4.59424 19.5584 4.59424C19.7496 4.59424 19.9773 4.63933 20.2415 4.72048C20.5056 4.80164 20.6423 4.9369 20.6423 5.13529C20.6423 5.49599 20.0958 6.55103 19.0118 8.28238C17.9279 10.0137 16.6801 11.8533 15.2773 13.8011C13.8746 15.7489 12.7087 17.2908 11.7705 18.427C11.6066 18.6254 11.3971 18.7336 11.1603 18.7336C10.9234 18.7336 10.6684 18.6885 10.4043 18.6074C10.1401 18.5262 10.0035 18.382 10.0035 18.1655C10.0035 17.4892 10.6046 14.2249 11.807 8.3906C10.7777 9.70715 9.52982 11.5467 8.06334 13.9003C6.53311 16.335 5.6678 17.8499 5.46741 18.427C5.35811 18.7787 5.23059 18.9861 5.08486 19.0402C4.98466 19.0853 4.87535 19.1034 4.76605 19.1034L4.02826 19.1845C3.88252 19.1845 3.755 19.1484 3.62748 19.0673C3.50907 18.9861 3.44531 18.905 3.44531 18.8148C3.44531 18.5713 3.79144 17.8319 4.47458 16.6055C5.15773 15.3791 5.96838 14.0446 6.88835 12.6018C7.80831 11.159 8.76471 9.76125 9.76665 8.39961C10.7686 7.03797 11.5428 6.11819 12.0893 5.6583C12.1986 5.55911 12.3262 5.51402 12.4719 5.51402L12.9182 5.57714Z" fill="#B7B7B7"/>
<path d="M23.8674 11.6908C24.341 11.6908 24.5778 11.8531 24.5778 12.1687C24.5778 12.3401 24.5414 12.4663 24.4594 12.5475C24.3774 12.6286 24.2044 12.8901 23.9402 13.35C23.6761 13.8009 23.3846 14.378 23.0658 15.0904C22.747 15.7938 22.5375 16.3979 22.4464 16.8939C22.4282 16.957 22.4191 17.0382 22.4191 17.1554C22.4191 17.4981 22.5102 17.6604 22.7015 17.6604C22.8927 17.6604 23.1113 17.5702 23.3664 17.3989C23.6214 17.2185 23.8491 17.0382 24.0495 16.8308C24.2499 16.6324 24.4412 16.425 24.6325 16.2176C24.8237 16.0102 24.9331 15.8839 24.9695 15.8569C25.0059 15.8298 25.0606 15.8118 25.1334 15.8118C25.2519 15.8118 25.3247 15.902 25.3521 16.0823C25.3794 16.2627 25.3885 16.443 25.3885 16.6414C25.3885 16.8398 25.3703 16.966 25.3338 17.0382C25.1517 17.3899 24.76 17.8137 24.1406 18.3096C23.5303 18.8056 22.9656 19.0491 22.4646 19.0491C21.9637 19.0491 21.5902 18.8958 21.3625 18.5982C21.1348 18.3006 21.0073 17.958 21.0073 17.5973C21.0073 17.2276 21.071 16.9119 21.1986 16.6324C20.6794 17.2997 20.0873 17.8588 19.4224 18.3277C18.7483 18.7876 18.2109 19.022 17.7828 19.022C17.3547 19.022 17.0177 18.8958 16.7445 18.6433C16.3983 18.3277 16.2344 17.8948 16.2344 17.3358C16.2344 16.7767 16.3619 16.2176 16.6169 15.6495C16.872 15.0904 17.1999 14.5674 17.6098 14.1075C18.0197 13.6386 18.4751 13.2148 18.9669 12.836C19.9962 12.0335 20.9526 11.6367 21.827 11.6367C22.164 11.6367 22.4373 11.6908 22.6468 11.799C22.8563 11.9072 22.9929 12.0515 23.0476 12.2138C23.1933 11.9884 23.3208 11.8531 23.4301 11.79C23.5121 11.7179 23.667 11.6908 23.8674 11.6908ZM22.6286 12.7188C21.5629 12.7188 20.4607 13.3049 19.3222 14.4772C18.9214 14.901 18.548 15.397 18.2018 15.9831C17.8557 16.5693 17.6917 16.966 17.6917 17.1825C17.6917 17.3989 17.7555 17.5071 17.883 17.5071C18.0561 17.5071 18.5388 17.1644 19.3404 16.4881C20.142 15.8118 20.6703 15.3068 20.9253 14.9822C21.2168 14.6215 21.7815 13.864 22.6286 12.7188Z" fill="#B7B7B7"/>
<path d="M30.954 6.80371L31.3366 6.89389C31.3912 6.89389 31.4459 6.92094 31.4823 6.97504C31.5278 7.02915 31.5461 7.08325 31.5461 7.12834C31.5461 7.17343 31.4823 7.30869 31.3457 7.52511C31.209 7.74153 31.0633 7.985 30.8811 8.25552C30.699 8.52605 30.6079 8.67935 30.5988 8.7064C31.0815 8.67033 31.4277 8.65229 31.628 8.65229C31.8284 8.65229 31.965 8.67033 32.047 8.69738C32.1199 8.72443 32.211 8.80559 32.3021 8.93184C32.4023 9.05808 32.4842 9.15727 32.5662 9.22039C32.6482 9.28352 32.6846 9.38271 32.6846 9.50895C32.6846 9.6352 32.6027 9.75243 32.4478 9.83358C32.293 9.92376 32.1199 9.97786 31.9377 9.9959C30.4895 10.1402 29.697 10.2123 29.5513 10.2213C29.0503 10.9878 28.3398 12.1781 27.4381 13.7923C26.5363 15.4064 26.0536 16.4254 25.9989 16.8311C25.9716 17.0205 25.9625 17.1648 25.9625 17.282C25.9625 17.5255 26.09 17.6427 26.3451 17.6427C26.6001 17.6427 26.8825 17.5435 27.1922 17.3542C27.5019 17.1558 27.7933 16.9484 28.0484 16.7229C28.7497 16.1097 29.1232 15.7941 29.1687 15.7941C29.3327 15.7941 29.4147 16.0737 29.4147 16.6237C29.4147 16.9213 29.278 17.1918 28.9957 17.4353C28.3672 17.9673 27.8389 18.3731 27.4108 18.6437C26.9827 18.9142 26.5546 19.0494 26.1174 19.0494C26.0263 19.0494 25.9352 19.0404 25.8532 19.0224C25.3522 18.9322 24.9879 18.7519 24.7602 18.4813C24.5234 18.2108 24.4141 17.8501 24.4141 17.3992C24.4141 16.9484 24.5507 16.3893 24.8239 15.74C25.0972 15.0908 25.4342 14.3964 25.8441 13.666C26.5181 12.4667 27.1922 11.3485 27.8571 10.3025L27.5019 10.3476C26.7823 10.4287 26.3633 10.4648 26.2449 10.4648H26.1629C25.9807 10.4648 25.8077 10.4287 25.6437 10.3566C25.4798 10.2845 25.3887 10.1943 25.3887 10.0951C25.3887 9.98688 25.4342 9.88769 25.5253 9.78849C25.6164 9.6893 25.671 9.60814 25.6893 9.55404C25.7348 9.41878 25.8987 9.26548 26.1811 9.10317C26.4635 8.94085 26.673 8.85068 26.8187 8.84166C26.9645 8.83264 27.1011 8.82362 27.2377 8.81461C27.3743 8.80559 27.5201 8.80559 27.684 8.79657C27.848 8.78755 27.9755 8.78756 28.0666 8.77854L28.9046 8.74247C29.4238 7.96696 29.7881 7.46199 29.9794 7.24557C30.1798 7.02013 30.2891 6.9029 30.3164 6.88487C30.3437 6.86683 30.4075 6.8488 30.5077 6.8488L30.954 6.80371Z" fill="#B7B7B7"/>
<path d="M36.5595 15.8117C36.6779 15.8117 36.7508 15.9019 36.7781 16.0822C36.8054 16.2626 36.8145 16.4429 36.8145 16.6413C36.8145 16.8397 36.7963 16.9659 36.7599 17.0381C36.5777 17.3807 36.186 17.8046 35.5758 18.3005C34.9655 18.7965 34.3825 19.049 33.836 19.049C33.499 19.049 33.1893 18.9498 32.8979 18.7514C32.6155 18.553 32.4697 18.2013 32.4697 17.7054C32.4697 17.2094 32.6064 16.7134 32.8705 16.2355C31.3221 18.1562 30.1197 19.1121 29.2362 19.1121C28.8901 19.1121 28.6077 18.9859 28.3891 18.7424C28.1705 18.4989 28.0703 18.2464 28.0703 17.9759C28.0703 17.7144 28.1067 17.4439 28.1796 17.1643C28.2525 16.8848 28.3345 16.6323 28.4164 16.4069C28.4984 16.1814 28.6259 15.9109 28.7899 15.5863C28.9538 15.2616 29.0814 15.0272 29.1542 14.8739C29.2271 14.7206 29.3637 14.5042 29.5459 14.2066C29.7281 13.909 29.9558 13.5032 30.2473 12.9982C30.5387 12.4933 30.7755 12.1145 30.9668 11.8711C31.1581 11.6276 31.3403 11.5013 31.5224 11.5013C31.7046 11.5013 31.8595 11.5735 31.9961 11.7178C32.1327 11.862 32.2056 11.9883 32.2056 12.0785C32.2056 12.1686 31.9961 12.5834 31.5771 13.3229C30.3475 15.5322 29.7281 16.8126 29.7281 17.1824C29.7281 17.2725 29.7645 17.3176 29.8283 17.3176C30.1288 17.3176 30.8758 16.6774 32.0599 15.3969C33.244 14.1164 33.9362 13.2958 34.1275 12.9351C34.3188 12.5744 34.4918 12.2678 34.674 12.0244C34.8471 11.7809 34.9837 11.6276 35.0748 11.5735C35.3389 11.4022 35.6851 11.312 36.1132 11.2939C36.186 11.2939 36.2316 11.2939 36.268 11.303C36.3044 11.312 36.35 11.3661 36.3955 11.4563C36.4411 11.5464 36.4684 11.6276 36.4684 11.6907C36.4138 11.862 36.1678 12.3219 35.7215 13.0704C35.2843 13.8188 35.0384 14.2427 34.9928 14.3328C34.255 15.8388 33.8907 16.8217 33.8907 17.2725C33.8907 17.534 33.9909 17.6603 34.1913 17.6603C34.5556 17.6152 34.9928 17.3266 35.5029 16.8036C35.6942 16.6143 35.8764 16.4159 36.0585 16.2175C36.2407 16.0191 36.3591 15.9019 36.3955 15.8748C36.4411 15.8297 36.4957 15.8117 36.5595 15.8117Z" fill="#B7B7B7"/>
<path d="M39.2576 13.6748C40.7241 12.0246 41.9811 11.195 43.0103 11.195C43.2654 11.195 43.4749 11.2672 43.6388 11.4205C43.8028 11.5738 43.8847 11.7631 43.8847 12.0066C43.8847 12.2501 43.7117 12.6468 43.3656 13.2149C43.0194 13.774 42.7006 14.2519 42.4091 14.6397C42.2543 14.8381 42.0812 14.9373 41.8809 14.9373C41.6896 14.9373 41.5347 14.8651 41.4254 14.7209C41.3161 14.5766 41.2615 14.4143 41.2615 14.2249C41.2615 13.8011 41.4892 13.3141 41.9537 12.7821L41.9355 12.7641C41.726 12.7821 41.225 13.1879 40.4053 13.9634C39.5946 14.7479 38.9024 15.4513 38.3285 16.0645C37.7638 16.6867 37.1444 17.4351 36.4704 18.3278C36.2791 18.5893 36.1151 18.7246 35.9785 18.7246C35.8419 18.7246 35.6688 18.6795 35.4502 18.5984C35.2316 18.5172 35.095 18.4541 35.0494 18.418C35.0039 18.3819 34.9766 18.3188 34.9766 18.2286C34.9766 18.1475 35.0039 18.0393 35.0494 17.9311C35.095 17.8138 35.1952 17.6515 35.3227 17.4441C35.4502 17.2367 35.6597 16.8941 35.933 16.4252C36.2062 15.9562 36.6252 15.2439 37.1991 14.297C37.7729 13.3502 38.1099 12.7731 38.2283 12.5747C38.4651 12.1689 38.6564 11.8713 38.8113 11.691C39.0936 11.3393 39.5673 11.168 40.2322 11.168C40.3779 11.168 40.4599 11.2581 40.4599 11.4475C40.4599 11.7361 40.1867 12.2861 39.6493 13.0797L39.2576 13.6748Z" fill="#B7B7B7"/>
<path d="M49.3093 11.7993C49.3093 12.2051 49.1453 12.5658 48.8083 12.8724C48.4713 13.179 48.0978 13.3323 47.6697 13.3323C47.5331 13.3323 47.442 13.2962 47.3965 13.2331C47.3509 13.17 47.3327 13.0798 47.3327 12.9806C47.3327 12.8814 47.3418 12.7732 47.3691 12.674C47.1414 12.7462 46.8955 12.8634 46.6222 13.0167C46.349 13.17 46.012 13.3954 45.6112 13.702C45.2104 14.0086 45.01 14.225 45.01 14.3783C45.01 14.4234 45.0829 14.4505 45.2286 14.4505C45.3744 14.4505 45.6021 14.3964 45.9027 14.2972C46.2032 14.198 46.4218 14.1439 46.5403 14.1439C46.6587 14.1439 46.7406 14.1529 46.7771 14.1619C46.8591 14.207 46.941 14.2972 47.0412 14.4414C47.1323 14.5857 47.1779 14.7029 47.1779 14.7841C47.1779 14.8653 47.0959 14.9735 46.9319 15.1087C46.768 15.244 46.5858 15.3432 46.3854 15.4153C46.1759 15.4875 46.0393 15.5416 45.9755 15.5776C44.6639 16.3081 44.0081 16.804 44.0081 17.0745C44.0081 17.5525 44.418 17.7959 45.2468 17.7959C45.7751 17.7959 46.3125 17.6336 46.8408 17.3C47.2963 17.0204 47.7062 16.7319 48.0705 16.4343C48.4348 16.1457 48.6626 15.9654 48.7627 15.8933C48.8629 15.8211 48.9358 15.7941 48.9814 15.7941C49.1453 15.7941 49.2273 15.9744 49.2273 16.3351C49.2273 16.6958 49.2091 16.9303 49.1635 17.0385C49.118 17.1557 48.9996 17.291 48.7901 17.4623C47.4602 18.5354 46.1941 19.0764 45.01 19.0764C44.3724 19.0764 43.8714 18.9862 43.4889 18.8149C42.7875 18.4993 42.4414 18.0214 42.4414 17.3721C42.4414 16.5245 43.0335 15.8752 44.2267 15.4424C43.9899 15.3342 43.835 15.2079 43.7713 15.0366C43.6984 14.8743 43.6711 14.6128 43.6711 14.2521C43.6711 13.8914 43.8441 13.5126 44.1811 13.1069C44.5182 12.7011 44.9372 12.3674 45.429 12.1149C46.522 11.5288 47.5058 11.2402 48.362 11.2402C48.5715 11.2402 48.7719 11.2853 48.9905 11.3845C49.2091 11.4837 49.3093 11.619 49.3093 11.7993Z" fill="#B7B7B7"/>
<path d="M70.5645 5.52311H70.6829C70.7194 5.52311 70.7467 5.52311 70.7558 5.53213C70.7649 5.54114 70.774 5.54114 70.7923 5.55016C70.8105 5.55016 70.8196 5.55918 70.8378 5.57721C70.8651 5.60426 70.9107 5.63132 70.9653 5.65837C71.0382 5.71247 71.0746 5.7756 71.0746 5.84774C71.0746 5.91988 71.0017 6.07317 70.856 6.30763C70.7103 6.54208 70.3368 7.11018 69.7266 8.02997C68.3329 10.1401 67.0851 12.1059 65.9829 13.9094C64.0793 17.0474 63.1137 18.6255 63.0955 18.6435C63.0773 18.6616 63.0682 18.6796 63.0591 18.6976C63.05 18.7337 63.0318 18.7517 62.9862 18.7517L62.8587 18.7247L62.6037 18.7878L62.4579 18.7608L62.3031 18.7878H62.2484L61.7292 18.86C61.4196 18.86 61.2647 18.7517 61.2647 18.5443C61.2647 18.4542 61.292 18.346 61.3467 18.2197C61.538 17.7688 62.5126 16.1367 64.2614 13.3052C63.1137 13.3322 61.9752 13.3503 60.8548 13.3503L58.8509 13.3413C58.523 13.8643 58.0676 14.6037 57.4938 15.5686C56.255 17.6696 55.5992 18.7247 55.5172 18.7427C55.4352 18.7608 55.3715 18.7788 55.3168 18.7788C55.2622 18.7788 55.2166 18.7517 55.1802 18.6886C55.1346 18.6345 55.1073 18.5984 55.0891 18.5984C55.0709 18.5984 55.0436 18.6075 54.9889 18.6345C54.9434 18.6616 54.8705 18.6706 54.7703 18.6706L54.5517 18.6616L54.4697 18.6075C54.4606 18.6075 54.4515 18.6165 54.4424 18.6345C54.4333 18.6525 54.406 18.6616 54.3695 18.6616C54.1054 18.6616 53.9688 18.5534 53.9688 18.3279C53.9688 18.1836 54.0234 17.9853 54.1236 17.7418C54.2329 17.4983 54.3695 17.2368 54.5426 16.9573C54.7157 16.6777 55.1529 16.0014 55.8724 14.9464C56.5829 13.8913 56.9381 13.3593 56.9381 13.3503C56.8197 13.3413 56.6831 13.3413 56.5283 13.3322C56.2095 13.3322 55.9908 13.3232 55.8542 13.2962C55.499 13.233 55.2531 12.9445 55.1255 12.4305C55.0527 12.178 55.0253 12.0157 55.0344 11.9345C55.0344 11.7722 55.1073 11.682 55.2531 11.682L55.499 11.7452C55.6265 11.7542 55.918 11.7632 56.3916 11.7903C56.8653 11.8173 57.2023 11.8263 57.4118 11.8263L57.9401 11.8083C58.7507 10.5549 59.7163 9.1301 60.8457 7.54302C60.0259 8.21031 59.1151 8.54396 58.1131 8.54396C57.6395 8.54396 57.2296 8.43575 56.8926 8.21031C56.5465 7.98488 56.3825 7.69632 56.3825 7.35366C56.3825 7.01099 56.51 6.74047 56.7742 6.53307C57.0383 6.33468 57.2843 6.23549 57.5211 6.23549C57.7579 6.23549 57.8763 6.27156 57.8763 6.3437C57.8763 6.37075 57.8399 6.3978 57.7761 6.42486C57.7124 6.46093 57.6759 6.48798 57.6759 6.51503C57.6759 6.61422 57.7852 6.7044 58.0038 6.77654C58.2224 6.84868 58.4684 6.89376 58.7416 6.89376C59.0149 6.89376 59.3428 6.81261 59.7436 6.65931C60.1443 6.50601 60.5542 6.29861 60.9823 6.05514C61.5835 5.71248 62.0571 5.42392 62.4033 5.19848C62.6037 5.09929 62.7858 5.0542 62.968 5.0542C63.1502 5.0542 63.2686 5.07223 63.3506 5.11732C63.4325 5.15339 63.4872 5.19848 63.5236 5.23455C63.5601 5.27062 63.6056 5.32472 63.642 5.38785C63.6876 5.45097 63.724 5.50507 63.7696 5.53213C63.806 5.5682 63.8333 5.60426 63.8333 5.64935C63.8333 5.69444 63.806 5.75756 63.7605 5.85676C63.7149 5.94693 63.4781 6.32566 63.05 6.98394C62.6219 7.64222 62.0663 8.48084 61.3922 9.49981C60.7182 10.5188 60.2263 11.2672 59.9166 11.7542C61.5835 11.7542 63.3779 11.7271 65.3089 11.664C67.6589 7.9939 68.8977 6.07317 69.0252 5.89282C69.1527 5.71248 69.2711 5.59525 69.3804 5.54114C69.4897 5.48704 69.6172 5.45999 69.7721 5.45999L70.5645 5.52311Z" fill="#B7B7B7"/>
<path d="M73.6062 11.6726C73.7975 11.6726 73.9888 11.7538 74.1801 11.9251C74.3805 12.0964 74.4715 12.3489 74.4715 12.6916C74.4715 13.0343 74.3531 13.4761 74.1072 14.0262C73.8613 14.5672 73.5334 15.1263 73.1053 15.6944C72.6863 16.2535 72.2126 16.7855 71.7116 17.2815C71.2016 17.7774 70.655 18.1832 70.0721 18.4988C69.48 18.8145 68.9518 18.9768 68.469 18.9768C67.9862 18.9768 67.6037 18.8235 67.3122 18.5259C67.0207 18.2283 66.875 17.8135 66.875 17.2815C66.875 16.7495 67.0116 16.1543 67.2758 15.5141C67.5399 14.8648 67.8769 14.2967 68.2959 13.8007C68.7149 13.3048 69.1613 12.8629 69.6531 12.4662C70.6642 11.6546 71.5568 11.2578 72.3219 11.2578C72.668 11.2578 72.9231 11.339 73.0961 11.5103C73.1599 11.5644 73.1872 11.6185 73.1872 11.6546V11.7087C73.2874 11.6726 73.4241 11.6726 73.6062 11.6726ZM72.668 12.899H72.6043C72.3857 12.899 72.2764 12.7457 72.2764 12.4301C71.8209 12.5744 71.3473 12.8359 70.8463 13.2056C70.3454 13.5753 69.899 14.0172 69.5074 14.5221C68.7058 15.5321 68.305 16.3888 68.2959 17.0831C68.2959 17.4258 68.4235 17.5971 68.6785 17.5971C68.9335 17.5971 69.3161 17.4258 69.8171 17.1011C70.318 16.7765 70.819 16.2986 71.32 15.6764C71.8118 15.0632 72.1853 14.5221 72.4312 14.0713C72.6772 13.6204 72.8047 13.3138 72.8047 13.1425C72.7956 12.9802 72.75 12.899 72.668 12.899Z" fill="#B7B7B7"/>
<path d="M74.2728 18.7699L73.8173 18.7519H73.6534C73.5896 18.7338 73.5259 18.6978 73.453 18.6437C73.3801 18.5896 73.3255 18.5445 73.289 18.5264C73.2526 18.5084 73.2344 18.4543 73.2344 18.3912C73.2344 18.328 73.2617 18.2108 73.3072 18.0575C74.5187 15.4154 75.6937 13.2963 76.8323 11.7182C76.9598 11.5469 77.1602 11.4116 77.4334 11.3215C77.7067 11.2313 77.9799 11.1862 78.2441 11.1862C78.3989 11.1862 78.4809 11.3034 78.4809 11.5469C78.4809 11.619 78.4536 11.7092 78.408 11.8174C78.3625 11.9347 78.235 12.115 78.0346 12.3765C77.8342 12.638 77.5974 12.9356 77.3241 13.2602C77.0509 13.5849 76.896 13.7832 76.8596 13.8373C77.7158 12.9627 78.4809 12.3134 79.1732 11.8806C79.8654 11.4567 80.3573 11.2403 80.667 11.2403C80.9767 11.2403 81.2135 11.3305 81.3774 11.5018C81.5414 11.6732 81.6234 11.8625 81.6234 12.0609C81.6234 12.2593 81.6051 12.4306 81.5778 12.5569C81.5505 12.6921 81.4958 12.8274 81.423 12.9717C81.3501 13.1159 81.2863 13.2422 81.2317 13.3414C81.177 13.4406 81.086 13.5758 80.9675 13.7382C80.84 13.9005 80.7581 14.0177 80.7125 14.0808C80.667 14.1439 80.5668 14.2612 80.421 14.4325C80.2753 14.6038 80.1933 14.703 80.1842 14.7211C80.3573 14.5497 80.6032 14.2972 80.9129 13.9546C81.2226 13.6119 81.4867 13.3324 81.7053 13.1069C81.9239 12.8815 82.1881 12.62 82.516 12.3314C82.8439 12.0429 83.1445 11.8084 83.4178 11.6371C84.0918 11.2223 84.7749 11.0059 85.4672 11.0059C85.704 11.0059 85.9044 11.078 86.0683 11.2313C86.2323 11.3846 86.3143 11.5559 86.3143 11.7633C86.3143 11.9707 86.0592 12.4667 85.5583 13.2422C85.0573 14.0177 84.5472 14.8022 84.0462 15.5867C83.5453 16.3713 83.2902 16.8672 83.2902 17.0746C83.2902 17.3542 83.3449 17.5255 83.4451 17.5796C83.5544 17.6337 83.6819 17.6517 83.8276 17.6427C83.9734 17.6337 84.192 17.5345 84.4561 17.3542C84.7294 17.1738 84.9662 16.9935 85.1757 16.7951C85.5218 16.4885 85.8315 16.1909 86.1321 15.9023C86.1959 15.8482 86.2596 15.8212 86.3416 15.8212C86.46 15.8212 86.5329 15.9114 86.5602 16.0917C86.5875 16.2721 86.5966 16.4524 86.5966 16.6508C86.5966 16.8492 86.5784 16.9754 86.542 17.0476C86.3598 17.3902 85.959 17.8141 85.3488 18.319C84.7294 18.815 84.1373 19.0675 83.5726 19.0675C83.4997 19.0675 83.4542 19.0675 83.4269 19.0585C82.7893 18.9953 82.3429 18.824 82.097 18.5354C81.8511 18.2469 81.7327 17.9042 81.7327 17.5165C81.7327 17.1287 81.8693 16.6418 82.1425 16.0827C82.4158 15.5236 82.7073 15.0096 83.0352 14.5587C83.3631 14.1079 83.6546 13.6931 83.9278 13.3233C84.2011 12.9536 84.3377 12.7552 84.3377 12.7282C84.3377 12.7011 84.3104 12.6831 84.2648 12.6831C84.0736 12.6831 83.6455 12.9897 82.9714 13.6119C81.8329 14.667 80.8491 15.6859 80.0202 16.6598C79.8016 16.9213 79.2825 17.5706 78.4718 18.6256C78.3807 18.7519 78.2259 18.815 78.0255 18.815C77.8251 18.815 77.6156 18.7789 77.397 18.6978C77.1784 18.6166 77.0691 18.5174 77.0691 18.4002C77.0691 18.3371 77.5609 17.4714 78.5538 15.8032C79.5466 14.1349 80.0385 13.2242 80.0385 13.0799C80.0385 12.9266 79.9474 12.8544 79.7652 12.8544C79.583 12.8544 79.2005 13.125 78.6266 13.666C77.0509 15.1539 75.8303 16.6418 74.965 18.1116C74.9104 18.2018 74.8011 18.3371 74.6371 18.5174C74.4731 18.6978 74.3274 18.7699 74.2728 18.7699Z" fill="#B7B7B7"/>
<path d="M92.3366 11.7993C92.3366 12.2051 92.1726 12.5658 91.8356 12.8724C91.4986 13.179 91.1252 13.3323 90.6971 13.3323C90.5604 13.3323 90.4694 13.2962 90.4238 13.2331C90.3783 13.17 90.36 13.0798 90.36 12.9806C90.36 12.8814 90.3691 12.7732 90.3965 12.674C90.1688 12.7462 89.9228 12.8634 89.6496 13.0167C89.3763 13.17 89.0393 13.3954 88.6385 13.702C88.2377 14.0086 88.0374 14.225 88.0374 14.3783C88.0374 14.4234 88.1102 14.4505 88.256 14.4505C88.4017 14.4505 88.6294 14.3964 88.93 14.2972C89.2306 14.198 89.4492 14.1439 89.5676 14.1439C89.686 14.1439 89.768 14.1529 89.8044 14.1619C89.8864 14.207 89.9684 14.2972 90.0686 14.4414C90.1597 14.5857 90.2052 14.7029 90.2052 14.7841C90.2052 14.8653 90.1232 14.9735 89.9593 15.1087C89.7953 15.244 89.6131 15.3432 89.4128 15.4153C89.2033 15.4875 89.0666 15.5416 89.0029 15.5776C87.6912 16.3081 87.0354 16.804 87.0354 17.0745C87.0354 17.5525 87.4453 17.7959 88.2742 17.7959C88.8025 17.7959 89.3399 17.6336 89.8682 17.3C90.3236 17.0204 90.7335 16.7319 91.0978 16.4343C91.4622 16.1457 91.6899 15.9654 91.7901 15.8933C91.8903 15.8211 91.9631 15.7941 92.0087 15.7941C92.1726 15.7941 92.2546 15.9744 92.2546 16.3351C92.2546 16.6958 92.2364 16.9303 92.1909 17.0385C92.1453 17.1557 92.0269 17.291 91.8174 17.4623C90.4876 18.5354 89.2215 19.0764 88.0374 19.0764C87.3998 19.0764 86.8988 18.9862 86.5162 18.8149C85.8149 18.4993 85.4688 18.0214 85.4688 17.3721C85.4688 16.5245 86.0608 15.8752 87.254 15.4424C87.0172 15.3342 86.8624 15.2079 86.7986 15.0366C86.7257 14.8743 86.6984 14.6128 86.6984 14.2521C86.6984 13.8914 86.8715 13.5126 87.2085 13.1069C87.5455 12.7011 87.9645 12.3674 88.4564 12.1149C89.5494 11.5288 90.5331 11.2402 91.3893 11.2402C91.5988 11.2402 91.7992 11.2853 92.0178 11.3845C92.2364 11.4837 92.3366 11.619 92.3366 11.7993Z" fill="#B7B7B7"/>
<path d="M0 21.2674C2.39555 22.2594 4.83664 23.0259 7.32328 23.612C9.7917 24.2252 12.3057 24.658 14.8196 24.9285C16.0766 25.0999 17.3427 25.1179 18.5906 25.2351C19.8567 25.2442 21.1136 25.3433 22.3706 25.2712L24.2561 25.2261C24.8846 25.2171 25.5131 25.1359 26.1416 25.0999C26.7701 25.0458 27.3985 25.0187 28.0179 24.9376L29.8852 24.6761C32.39 24.4055 34.822 23.8284 37.2449 23.1341C39.6951 22.4668 42.0087 21.5831 44.4589 20.6633C46.9637 19.7525 49.6781 19.1574 52.4289 19.4459C53.786 19.6172 55.1523 20.0501 56.2636 20.8436C57.3839 21.6281 58.1855 22.7463 58.6956 23.9186C57.9304 22.8726 56.974 22.0159 55.8719 21.4839C54.7698 20.9518 53.5583 20.7354 52.356 20.7715C49.924 20.8076 47.5285 21.6101 45.2786 22.6201C42.9924 23.7382 40.5149 24.7482 38.0191 25.5868C35.5052 26.3894 32.9092 27.0296 30.2768 27.3542C25.0394 28.0396 19.6745 28.0486 14.5008 27.0116C11.9049 26.5427 9.3727 25.8123 6.9225 24.8835C4.49051 23.9186 2.11319 22.7914 0 21.2674Z" fill="#B7B7B7"/>
<path d="M87.1064 6.25374C85.0752 5.39708 83.0076 4.72978 80.9126 4.20677C78.8268 3.65671 76.7136 3.26896 74.5913 2.99843C73.5347 2.83612 72.4599 2.80005 71.4033 2.6738C70.3376 2.64675 69.281 2.53854 68.2153 2.58363C67.687 2.59264 67.1496 2.59264 66.6213 2.58363C66.093 2.58363 65.5556 2.63773 65.0273 2.65577C64.499 2.69184 63.9616 2.70085 63.4333 2.75496L61.8484 2.94433C59.7261 3.11566 57.6676 3.5485 55.609 4.08053C53.5232 4.57649 51.5466 5.27985 49.4425 5.98321C47.2838 6.6956 44.9429 7.12843 42.5929 6.8038C41.4361 6.61444 40.2702 6.20865 39.3503 5.48725C38.4121 4.77487 37.7745 3.80099 37.3828 2.78201C38.0295 3.67474 38.8311 4.40516 39.751 4.85603C40.671 5.3069 41.6821 5.49627 42.6931 5.48725C44.7334 5.48725 46.7555 4.838 48.6683 4.02642C50.6175 3.10664 52.7581 2.29507 54.8895 1.62778C57.0391 0.987535 59.2798 0.500591 61.5205 0.266137C65.9928 -0.202772 70.5653 -0.0945626 74.9465 0.933429C77.1417 1.39332 79.2822 2.09668 81.3316 2.96236C83.3901 3.84607 85.3758 4.87406 87.1064 6.25374Z" fill="#B7B7B7"/>
</svg>
