<svg width="75" height="30" viewBox="0 0 75 30" fill="none" xmlns="http://www.w3.org/2000/svg">
<path d="M0 18.4498V0H10.9758V18.4407H0V18.4498ZM9.64599 14.1574L9.92835 12.1195L8.90817 12.0203L8.59848 13.5893C7.96088 13.9049 7.17755 14.0582 6.23937 14.0582C4.96417 14.0582 3.95311 13.6615 3.21532 12.8589C2.46842 12.0564 2.10407 11.0013 2.10407 9.68477C2.10407 8.40428 2.46842 7.34924 3.188 6.51963C3.90757 5.69003 4.85489 5.27522 6.02989 5.27522C6.63105 5.27522 7.14112 5.34736 7.551 5.48262C7.96089 5.61789 8.33434 5.79824 8.68957 6.03269L8.99017 7.58369L10.0285 7.4845L9.72796 5.44655C9.29075 5.07684 8.77154 4.77926 8.17038 4.54481C7.56921 4.31937 6.82233 4.20214 5.9388 4.20214C4.89131 4.20214 3.98957 4.45463 3.23356 4.96863C2.47754 5.48262 1.88549 6.15893 1.46649 6.99756C1.0475 7.8452 0.838 8.75597 0.838 9.72985C0.838 11.2718 1.32075 12.5613 2.28626 13.5893C3.25176 14.6173 4.50874 15.1313 6.0663 15.1313C7.59654 15.1313 8.78978 14.8067 9.64599 14.1574Z" fill="#B7B7B7"/>
<path d="M14.6992 18.4498V0H19.4174V18.4407H14.6992V18.4498ZM15.2002 14.969H18.9256V14.0402H17.6413V3.74225H15.182V4.67105H16.4845V14.0402H15.2002V14.969Z" fill="#B7B7B7"/>
<path d="M23.1445 18.4498V0H31.4333V18.4407H23.1445V18.4498ZM24.6474 8.26L24.3833 9.93726L25.3397 10.0545L25.6221 8.80105C26.0319 8.60267 26.4965 8.50348 27.043 8.50348C27.6988 8.50348 28.1451 8.66579 28.3729 8.99042C28.6006 9.31505 28.7099 9.73887 28.7099 10.2619V10.9111C28.5095 10.8931 28.3 10.8751 28.0723 10.8661C27.8446 10.857 27.626 10.848 27.4074 10.848C26.5876 10.848 25.8042 10.9923 25.0755 11.2809C24.3469 11.5694 23.9825 12.1736 23.9825 13.0844C23.9825 13.8599 24.2285 14.3919 24.7294 14.6804C25.2304 14.978 25.7223 15.1223 26.205 15.1223C26.7971 15.1223 27.3071 14.969 27.7261 14.6624C28.1451 14.3558 28.4731 14.0132 28.7099 13.6164V13.6525C28.7281 14.6354 29.1744 15.1223 30.0488 15.1223C30.3859 15.1223 30.7046 15.0411 31.0052 14.8788L30.987 14.1304C30.8413 14.1935 30.6773 14.2296 30.4951 14.2296C30.0762 14.2296 29.8667 13.9681 29.8667 13.4451V9.99136C29.8667 8.36821 28.9922 7.55664 27.2434 7.55664C26.7606 7.55664 26.3052 7.61075 25.8771 7.71896C25.4399 7.83618 25.03 8.01653 24.6474 8.26ZM28.7008 12.2457C28.6552 12.8409 28.4093 13.3188 27.963 13.6615C27.5166 14.0132 27.043 14.1845 26.5329 14.1845C26.2141 14.1845 25.9044 14.0943 25.613 13.923C25.3124 13.7516 25.1666 13.427 25.1666 12.9581C25.1666 12.39 25.3944 12.0293 25.8316 11.858C26.2779 11.6866 26.7697 11.6055 27.3254 11.6055C27.5713 11.6055 27.8081 11.6145 28.0358 11.6416C28.2635 11.6596 28.4913 11.6776 28.6916 11.6866V12.2457H28.7008Z" fill="#B7B7B7"/>
<path d="M35.168 18.4498V0H42.7007V18.4407H35.168V18.4498ZM41.9083 12.8679C41.9083 12.2908 41.7534 11.867 41.4438 11.5875C41.1341 11.3079 40.7606 11.1185 40.3052 11.0103C39.8498 10.9021 39.4035 10.812 38.9571 10.7398C38.5108 10.6677 38.1283 10.5504 37.8186 10.3971C37.5089 10.2438 37.354 9.97333 37.354 9.58557C37.354 9.21586 37.4997 8.94533 37.8003 8.76499C38.1009 8.58464 38.4744 8.50348 38.9389 8.50348C39.4763 8.50348 39.9773 8.6207 40.4418 8.86418L40.624 10.0364L41.5804 9.91922L41.3982 8.22394C41.0885 8.03457 40.7151 7.88127 40.2688 7.75503C39.8224 7.62878 39.3488 7.55664 38.8387 7.55664C38.1647 7.55664 37.5453 7.71896 36.9715 8.03457C36.3976 8.35018 36.1153 8.89123 36.1153 9.66673C36.1153 10.2348 36.2701 10.6496 36.5798 10.9111C36.8895 11.1817 37.2721 11.362 37.7366 11.4702C38.2011 11.5784 38.6565 11.6686 39.112 11.7498C39.5674 11.8219 39.95 11.9482 40.2597 12.1105C40.5693 12.2728 40.7242 12.5523 40.7242 12.9581C40.7242 13.3729 40.5238 13.6795 40.123 13.8779C39.7222 14.0763 39.2668 14.1755 38.7476 14.1755C38.1647 14.1755 37.6182 14.0582 37.1172 13.8148L37.1627 12.8499L36.2428 12.7507L36.0151 14.4009C36.3339 14.6083 36.7528 14.7796 37.2629 14.9149C37.773 15.0502 38.2831 15.1223 38.8023 15.1223C39.6858 15.1223 40.4236 14.9239 41.0157 14.5181C41.6077 14.1304 41.9083 13.5713 41.9083 12.8679Z" fill="#B7B7B7"/>
<path d="M46.4258 18.4498V0H53.9585V18.4407H46.4258V18.4498ZM53.1661 12.8679C53.1661 12.2908 53.0112 11.867 52.7015 11.5875C52.3918 11.3079 52.0184 11.1185 51.563 11.0103C51.1075 10.9021 50.6612 10.812 50.2149 10.7398C49.7686 10.6677 49.386 10.5504 49.0763 10.3971C48.7667 10.2438 48.6118 9.97333 48.6118 9.58557C48.6118 9.21586 48.7575 8.94533 49.0581 8.76499C49.3587 8.58464 49.7321 8.50348 50.1967 8.50348C50.7341 8.50348 51.2351 8.6207 51.6996 8.86418L51.8818 10.0364L52.8382 9.91922L52.656 8.22394C52.3463 8.03457 51.9729 7.88127 51.5266 7.75503C51.0802 7.62878 50.6066 7.55664 50.0965 7.55664C49.4225 7.55664 48.8031 7.71896 48.2293 8.03457C47.6554 8.35018 47.3731 8.89123 47.3731 9.66673C47.3731 10.2348 47.5279 10.6496 47.8376 10.9111C48.1473 11.1817 48.5299 11.362 48.9944 11.4702C49.4589 11.5784 49.9143 11.6686 50.3697 11.7498C50.8252 11.8219 51.2077 11.9482 51.5174 12.1105C51.8271 12.2728 51.982 12.5523 51.982 12.9581C51.982 13.3729 51.7816 13.6795 51.3808 13.8779C50.9801 14.0763 50.5246 14.1755 50.0054 14.1755C49.4225 14.1755 48.8759 14.0582 48.375 13.8148L48.4206 12.8499L47.5006 12.7507L47.2729 14.4009C47.5917 14.6083 48.0107 14.7796 48.5207 14.9149C49.0308 15.0502 49.5409 15.1223 50.0601 15.1223C50.9436 15.1223 51.6814 14.9239 52.2735 14.5181C52.8655 14.1304 53.1661 13.5713 53.1661 12.8679Z" fill="#B7B7B7"/>
<path d="M57.6836 18.4498V0H62.6478V18.4407H57.6836V18.4498ZM58.4123 14.969H62.1377V14.0402H60.8534V7.70994H58.385V8.63874H59.7057V14.0402H58.4214V14.969H58.4123ZM59.5782 4.34642V5.83431H60.8352V4.34642H59.5782Z" fill="#B7B7B7"/>
<path d="M66.375 18.4498V0H74.3086V18.4407H66.375V18.4498ZM73.5981 12.5253L72.6053 12.3089C72.3867 13.5352 71.7218 14.1484 70.6287 14.1484C69.9001 14.1484 69.3444 13.9049 68.9619 13.418C68.5793 12.9311 68.388 12.2457 68.388 11.3801C68.388 10.5955 68.5611 9.92824 68.8981 9.36916C69.2351 8.81007 69.7998 8.53955 70.5831 8.53955C71.1843 8.53955 71.7126 8.67481 72.1499 8.94533L72.4322 10.1717L73.3886 10.0545L73.1062 8.30509C72.7328 8.02555 72.3411 7.82717 71.9313 7.71896C71.5214 7.61075 71.075 7.55664 70.5923 7.55664C69.4537 7.55664 68.5884 7.95341 68.0236 8.74695C67.4498 9.54049 67.1674 10.4422 67.1674 11.4432C67.1674 12.6064 67.468 13.5172 68.0783 14.1574C68.6795 14.8067 69.4902 15.1313 70.5012 15.1313C71.5123 15.1313 72.2592 14.8518 72.7328 14.3017C73.2065 13.7426 73.4979 13.1565 73.5981 12.5253Z" fill="#B7B7B7"/>
<path d="M4.74216 28.522C4.53267 28.9008 4.22297 29.1983 3.82219 29.4057C3.4123 29.6131 2.92955 29.7214 2.36481 29.7214H0.734375V24.6355H2.36481C2.92955 24.6355 3.42141 24.7347 3.82219 24.9421C4.22297 25.1495 4.53267 25.4381 4.74216 25.8258C4.95166 26.2136 5.05185 26.6554 5.05185 27.1784C5.05185 27.6924 4.95166 28.1433 4.74216 28.522ZM3.8404 28.6212C4.19563 28.2786 4.36871 27.8006 4.36871 27.1784C4.36871 26.5562 4.19563 26.0783 3.8404 25.7356C3.48516 25.393 2.97508 25.2216 2.30105 25.2216H1.3811V29.1352H2.30105C2.97508 29.1352 3.48516 28.9639 3.8404 28.6212Z" fill="#B7B7B7"/>
<path d="M8.43056 25.1678V26.9081H10.3798V27.4131H8.43056V29.1896H10.5984V29.7216H7.76562V24.6357H10.5984V25.1678H8.43056Z" fill="#B7B7B7"/>
<path d="M16.3559 29.0722C16.2375 29.2796 16.0644 29.451 15.8276 29.5772C15.5908 29.7035 15.2993 29.7756 14.9441 29.7756C14.6071 29.7756 14.2974 29.7125 14.0332 29.5953C13.7691 29.469 13.5596 29.3067 13.3956 29.0903C13.2408 28.8739 13.1497 28.6304 13.1224 28.3599H13.8328C13.8511 28.5041 13.8966 28.6484 13.9786 28.7837C14.0606 28.9189 14.1881 29.0362 14.3429 29.1264C14.4978 29.2165 14.689 29.2616 14.9168 29.2616C15.2082 29.2616 15.436 29.1895 15.5908 29.0272C15.7457 28.8648 15.8276 28.6755 15.8276 28.432C15.8276 28.2246 15.773 28.0533 15.6637 27.927C15.5544 27.8008 15.4177 27.6926 15.2629 27.6204C15.108 27.5483 14.8803 27.4671 14.6071 27.377C14.2792 27.2688 14.0241 27.1696 13.8237 27.0794C13.6234 26.9892 13.4594 26.8449 13.3228 26.6556C13.1861 26.4662 13.1133 26.2227 13.1133 25.9161C13.1133 25.6546 13.177 25.4202 13.3046 25.2128C13.4321 25.0144 13.6142 24.8521 13.8602 24.7439C14.097 24.6356 14.3885 24.5815 14.7073 24.5815C15.2082 24.5815 15.6181 24.6988 15.9096 24.9422C16.2102 25.1857 16.3741 25.4923 16.4288 25.871H15.7183C15.6819 25.6727 15.5726 25.4923 15.4086 25.339C15.2356 25.1857 15.0078 25.1046 14.7164 25.1046C14.4522 25.1046 14.2336 25.1767 14.0788 25.312C13.9148 25.4472 13.842 25.6456 13.842 25.8891C13.842 26.0875 13.8966 26.2498 13.9968 26.367C14.1061 26.4932 14.2336 26.5834 14.3885 26.6556C14.5433 26.7277 14.7619 26.7998 15.0261 26.89C15.354 26.9982 15.6181 27.0974 15.8276 27.1966C16.028 27.2958 16.2011 27.4401 16.3377 27.6294C16.4743 27.8188 16.5472 28.0803 16.5472 28.405C16.529 28.6394 16.4743 28.8648 16.3559 29.0722Z" fill="#B7B7B7"/>
<path d="M19.9071 24.6357V29.7216H19.2422V24.6357H19.9071Z" fill="#B7B7B7"/>
<path d="M26.6289 25.0232C27.0387 25.3208 27.312 25.7176 27.4486 26.2226H26.7473C26.6289 25.916 26.4194 25.6635 26.137 25.4831C25.8546 25.2938 25.5176 25.2036 25.126 25.2036C24.7798 25.2036 24.461 25.2848 24.1877 25.4471C23.9145 25.6094 23.6959 25.8348 23.532 26.1324C23.3771 26.43 23.2951 26.7817 23.2951 27.1874C23.2951 27.6022 23.3771 27.9629 23.532 28.2605C23.6868 28.5581 23.9145 28.7926 24.1969 28.9549C24.4792 29.1172 24.8072 29.1983 25.1806 29.1983C25.4994 29.1983 25.7818 29.1262 26.0459 29C26.31 28.8647 26.5195 28.6663 26.6926 28.4138C26.8657 28.1613 26.9568 27.8547 26.9932 27.5121H24.9711V27.0251H27.5488V27.6293C27.5033 28.0351 27.3758 28.3958 27.1663 28.7294C26.9568 29.0631 26.6744 29.3156 26.3192 29.5049C25.9639 29.6943 25.5631 29.7935 25.1077 29.7935C24.6159 29.7935 24.1786 29.6853 23.7961 29.4689C23.4135 29.2524 23.1221 28.9458 22.9126 28.5491C22.7031 28.1613 22.5938 27.7105 22.5938 27.2055C22.5938 26.7005 22.7031 26.2496 22.9126 25.8619C23.1221 25.4741 23.4226 25.1585 23.7961 24.9421C24.1695 24.7257 24.6067 24.6084 25.0986 24.6084C25.718 24.5904 26.219 24.7347 26.6289 25.0232Z" fill="#B7B7B7"/>
<path d="M34.2721 29.7216H33.6072L30.9383 25.6998V29.7216H30.2734V24.6357H30.9383L33.6072 28.6575V24.6357H34.2721V29.7216Z" fill="#B7B7B7"/>
<path d="M43.852 29.0718C43.7336 29.2792 43.5605 29.4505 43.3237 29.5767C43.0869 29.703 42.7954 29.7751 42.4402 29.7751C42.1032 29.7751 41.7935 29.712 41.5293 29.5948C41.2652 29.4685 41.0557 29.3062 40.8917 29.0898C40.7369 28.8734 40.6458 28.6299 40.6185 28.3594H41.3289C41.3471 28.5037 41.3927 28.6479 41.4747 28.7832C41.5567 28.9185 41.6842 29.0357 41.839 29.1259C41.9939 29.216 42.1851 29.2611 42.4129 29.2611C42.7043 29.2611 42.932 29.189 43.0869 29.0267C43.2417 28.8644 43.3237 28.675 43.3237 28.4315C43.3237 28.2241 43.2691 28.0528 43.1598 27.9265C43.0505 27.8003 42.9138 27.6921 42.759 27.6199C42.6041 27.5478 42.3764 27.4666 42.1032 27.3765C41.7753 27.2683 41.5202 27.1691 41.3198 27.0789C41.1194 26.9887 40.9555 26.8444 40.8189 26.6551C40.6822 26.4657 40.6094 26.2222 40.6094 25.9156C40.6094 25.6541 40.6731 25.4197 40.8006 25.2123C40.9281 25.0139 41.1104 24.8516 41.3563 24.7434C41.5931 24.6352 41.8846 24.5811 42.2034 24.5811C42.7043 24.5811 43.1142 24.6983 43.4057 24.9418C43.7063 25.1852 43.8703 25.4918 43.9249 25.8706H43.2144C43.178 25.6722 43.0686 25.4918 42.9047 25.3385C42.7316 25.1852 42.504 25.1041 42.2125 25.1041C41.9483 25.1041 41.7297 25.1762 41.5749 25.3115C41.4109 25.4467 41.338 25.6451 41.338 25.8886C41.338 26.087 41.3927 26.2493 41.4929 26.3665C41.6022 26.4928 41.7297 26.5829 41.8845 26.6551C42.0394 26.7272 42.258 26.7994 42.5222 26.8895C42.8501 26.9977 43.1142 27.0969 43.3237 27.1961C43.5241 27.2953 43.6972 27.4396 43.8338 27.629C43.9704 27.8183 44.0433 28.0798 44.0433 28.4045C44.025 28.6389 43.9704 28.8644 43.852 29.0718Z" fill="#B7B7B7"/>
<path d="M49.8909 24.6357V25.1678H48.4426V29.7216H47.7686V25.1678H46.3203V24.6357H49.8909Z" fill="#B7B7B7"/>
<path d="M52.9904 24.6355V27.6834C52.9904 28.1794 53.0997 28.5491 53.3274 28.7926C53.5551 29.027 53.8557 29.1533 54.2565 29.1533C54.6482 29.1533 54.9488 29.036 55.1674 28.7926C55.386 28.5491 55.4953 28.1884 55.4953 27.6924V24.6445H56.1602V27.6924C56.1602 28.3868 55.9872 28.9098 55.641 29.2524C55.2949 29.6041 54.8304 29.7755 54.2474 29.7755C53.6736 29.7755 53.2091 29.6041 52.8629 29.2524C52.5168 28.9008 52.3438 28.3868 52.3438 27.6924V24.6445H52.9904V24.6355Z" fill="#B7B7B7"/>
<path d="M63.0155 28.5223C62.806 28.901 62.4963 29.1986 62.0956 29.406C61.6857 29.6134 61.203 29.7216 60.6382 29.7216H59.0078V24.6357H60.6382C61.203 24.6357 61.6948 24.7349 62.0956 24.9423C62.4963 25.1497 62.806 25.4383 63.0155 25.826C63.225 26.2138 63.3253 26.6557 63.3253 27.1787C63.3253 27.6927 63.225 28.1435 63.0155 28.5223ZM62.1229 28.6215C62.4782 28.2788 62.6512 27.8009 62.6512 27.1787C62.6512 26.5565 62.4782 26.0785 62.1229 25.7359C61.7677 25.3932 61.2576 25.2219 60.5836 25.2219H59.6636V29.1355H60.5836C61.2485 29.1355 61.7677 28.9641 62.1229 28.6215Z" fill="#B7B7B7"/>
<path d="M66.7196 24.6357V29.7216H66.0547V24.6357H66.7196Z" fill="#B7B7B7"/>
<path d="M73.2384 24.9059C73.6209 25.1313 73.9215 25.4379 74.1401 25.8347C74.3587 26.2315 74.468 26.6824 74.468 27.1783C74.468 27.6743 74.3587 28.1251 74.1401 28.5219C73.9215 28.9187 73.6209 29.2253 73.2384 29.4507C72.8558 29.6762 72.4277 29.7844 71.954 29.7844C71.4804 29.7844 71.0432 29.6762 70.6606 29.4507C70.2781 29.2253 69.9684 28.9187 69.7498 28.5219C69.5312 28.1251 69.4219 27.6743 69.4219 27.1783C69.4219 26.6824 69.5312 26.2315 69.7498 25.8347C69.9684 25.4379 70.269 25.1313 70.6606 24.9059C71.0523 24.6805 71.4804 24.5723 71.954 24.5723C72.4277 24.5723 72.8558 24.6805 73.2384 24.9059ZM70.9976 25.4289C70.7153 25.5912 70.4967 25.8167 70.3418 26.1233C70.187 26.4208 70.105 26.7725 70.105 27.1783C70.105 27.5751 70.187 27.9268 70.3418 28.2334C70.4967 28.54 70.7153 28.7654 70.9976 28.9277C71.28 29.09 71.5897 29.1712 71.9449 29.1712C72.291 29.1712 72.6099 29.09 72.8922 28.9277C73.1746 28.7654 73.3932 28.5309 73.548 28.2334C73.7029 27.9358 73.7849 27.5841 73.7849 27.1873C73.7849 26.7815 73.7029 26.4299 73.548 26.1323C73.3932 25.8347 73.1746 25.6003 72.8922 25.4379C72.6099 25.2756 72.3001 25.1945 71.9449 25.1945C71.5988 25.1855 71.28 25.2666 70.9976 25.4289Z" fill="#B7B7B7"/>
</svg>
