<svg width="84" height="27" viewBox="0 0 84 27" fill="none" xmlns="http://www.w3.org/2000/svg">
<path d="M7.42347 0V0.117228L6.93163 0.234454V5.42852L7.42347 5.54575V5.66297H5.09168V5.54575L5.58355 5.42852V1.00094L3.65254 5.74413H3.40659L0.901738 1.00094V5.30228L1.55756 5.54575V5.66297H0V5.54575L0.655817 5.30228V0.234454L0.163947 0.117228V0H1.1841C1.33895 0 1.47558 0.0180345 1.58488 0.0541044C1.69418 0.0901742 1.8035 0.135261 1.88548 0.198384C1.97656 0.261506 2.04943 0.333647 2.11319 0.414805C2.17695 0.495962 2.23161 0.595154 2.28626 0.694346L4.07153 4.0759L5.43781 0.694346C5.48335 0.577119 5.52891 0.477927 5.59267 0.396769C5.64732 0.315612 5.72017 0.243472 5.80215 0.18035C5.88412 0.117228 5.98433 0.0721391 6.10275 0.0450867C6.22116 0.0180343 6.36688 0 6.54906 0H7.42347Z" fill="#B7B7B7"/>
<path d="M10.3397 1.50586C10.6767 1.50586 10.9864 1.55095 11.2506 1.65014C11.5147 1.74933 11.7424 1.89361 11.9337 2.07396C12.125 2.26333 12.2616 2.48876 12.3618 2.75027C12.462 3.01178 12.5076 3.31837 12.5076 3.65202C12.5076 3.98566 12.462 4.29226 12.3618 4.55376C12.2616 4.81527 12.1159 5.04071 11.9337 5.23007C11.7424 5.41944 11.5147 5.55471 11.2506 5.6539C10.9864 5.75309 10.6767 5.79818 10.3397 5.79818C10.0027 5.79818 9.69301 5.75309 9.42886 5.6539C9.16471 5.55471 8.937 5.41042 8.74572 5.23007C8.55444 5.04071 8.41781 4.81527 8.31762 4.55376C8.21742 4.29226 8.17188 3.98566 8.17188 3.65202C8.17188 3.31837 8.21742 3.01178 8.31762 2.75027C8.41781 2.48876 8.56355 2.26333 8.74572 2.07396C8.937 1.88459 9.16471 1.74933 9.42886 1.65014C9.69301 1.55095 9.99359 1.50586 10.3397 1.50586ZM10.3397 5.64488C10.4308 5.64488 10.5219 5.61783 10.6221 5.5547C10.7132 5.49158 10.7951 5.39239 10.868 5.23909C10.9409 5.0858 11.0046 4.88741 11.0502 4.63492C11.0957 4.37342 11.123 4.04879 11.123 3.66103C11.123 3.26427 11.0957 2.93964 11.0502 2.68715C11.0046 2.43466 10.9409 2.22726 10.868 2.08298C10.7951 1.9387 10.7132 1.83049 10.6221 1.76737C10.531 1.70424 10.4399 1.67719 10.3397 1.67719C10.2486 1.67719 10.1575 1.70424 10.0574 1.76737C9.96627 1.83049 9.88427 1.92968 9.8114 2.08298C9.73854 2.23627 9.67479 2.43466 9.62925 2.68715C9.58371 2.94865 9.55637 3.27328 9.55637 3.66103C9.55637 4.0578 9.58371 4.38243 9.62925 4.63492C9.67479 4.88741 9.73854 5.09481 9.8114 5.23909C9.88427 5.38337 9.96627 5.49158 10.0574 5.5547C10.1484 5.60881 10.2395 5.64488 10.3397 5.64488Z" fill="#B7B7B7"/>
<path d="M16.4861 0C16.978 0 17.2239 0.243471 17.2239 0.730415V5.43754L17.7158 5.55476V5.67199H16.978C16.7776 5.67199 16.6227 5.64494 16.5043 5.58182C16.3859 5.51869 16.2857 5.44655 16.2219 5.37441C16.14 5.28424 16.0762 5.17603 16.0398 5.06782C15.9669 5.2121 15.8758 5.32933 15.7665 5.43754C15.6754 5.52771 15.5479 5.60887 15.3931 5.69002C15.2382 5.77118 15.056 5.80725 14.8465 5.80725C14.6097 5.80725 14.3911 5.76217 14.1907 5.67199C13.9812 5.58182 13.8082 5.44655 13.6624 5.2662C13.5167 5.08586 13.3892 4.86042 13.3072 4.59891C13.2161 4.32839 13.1797 4.02179 13.1797 3.66109C13.1797 3.30039 13.2252 2.9938 13.3072 2.72328C13.3983 2.45275 13.5167 2.23633 13.6806 2.05598C13.8355 1.87564 14.0268 1.74037 14.2454 1.6502C14.464 1.56002 14.7099 1.51494 14.9832 1.51494C15.1289 1.51494 15.2564 1.53297 15.3749 1.56002C15.4933 1.59609 15.5934 1.63216 15.6754 1.67725C15.7756 1.72234 15.8576 1.77644 15.9305 1.83957V0.261508L15.4386 0.144279V0.027053H16.4861V0ZM15.9123 2.07402C15.8485 2.0109 15.7939 1.95679 15.721 1.91171C15.6572 1.86662 15.5935 1.83055 15.5206 1.79448C15.4477 1.75841 15.3749 1.74939 15.2929 1.74939C15.1927 1.74939 15.0925 1.77644 15.0014 1.83055C14.9103 1.88465 14.8374 1.97483 14.7646 2.11009C14.7008 2.24535 14.6462 2.44373 14.6097 2.68721C14.5733 2.9397 14.5551 3.25531 14.5551 3.65208C14.5551 4.03983 14.5733 4.34642 14.6097 4.58989C14.6462 4.83337 14.6917 5.02273 14.7555 5.15799C14.8101 5.29326 14.8739 5.39245 14.9559 5.43754C15.0287 5.48262 15.1016 5.50968 15.1745 5.50968C15.302 5.50968 15.4113 5.47361 15.5024 5.41048C15.5934 5.34736 15.6663 5.2662 15.7301 5.18505C15.8029 5.08585 15.8667 4.97764 15.9214 4.86042V2.07402H15.9123Z" fill="#B7B7B7"/>
<path d="M20.4556 5.80745C19.7542 5.80745 19.2077 5.61809 18.8251 5.23935C18.4335 4.86062 18.2422 4.32859 18.2422 3.66129C18.2422 3.32765 18.2877 3.02105 18.3879 2.75955C18.4881 2.49804 18.6248 2.2726 18.7978 2.08324C18.9709 1.89387 19.1804 1.75861 19.4354 1.65942C19.6813 1.56022 19.9546 1.51514 20.2552 1.51514C20.5649 1.51514 20.8381 1.56022 21.075 1.64138C21.3209 1.73156 21.5213 1.84878 21.6943 1.99306C21.8674 2.13734 21.9949 2.30867 22.086 2.50706C22.1771 2.70544 22.2226 2.91284 22.2226 3.13828C22.2226 3.21042 22.2226 3.28256 22.2135 3.33667C22.2044 3.39077 22.1953 3.44488 22.1862 3.48996C22.168 3.54407 22.1589 3.58916 22.1406 3.62523C21.9038 3.67031 21.6488 3.7154 21.3755 3.74245C21.1478 3.77852 20.8837 3.80557 20.5831 3.82361C20.2825 3.84164 19.9728 3.85968 19.6449 3.85968C19.6449 4.19333 19.6722 4.47287 19.7178 4.69831C19.7633 4.92374 19.8362 5.10409 19.9182 5.23033C20.0092 5.3656 20.1094 5.45577 20.2278 5.50988C20.3463 5.56398 20.4829 5.59103 20.6195 5.59103C20.7835 5.59103 20.9383 5.56398 21.0841 5.50086C21.2298 5.43774 21.3573 5.3656 21.4575 5.26641C21.5668 5.16721 21.6488 5.04999 21.7125 4.92374C21.7763 4.7975 21.8036 4.67125 21.8036 4.53599H22.004C22.004 4.6983 21.9676 4.8516 21.8947 5.0049C21.8219 5.15819 21.7126 5.29346 21.5759 5.41068C21.4393 5.52791 21.2753 5.61809 21.0841 5.69023C20.9019 5.77138 20.6924 5.80745 20.4556 5.80745ZM19.6358 3.65228C19.818 3.65228 19.9819 3.65228 20.1277 3.64326C20.2734 3.63424 20.3918 3.62523 20.492 3.61621C20.6104 3.60719 20.7015 3.58915 20.7835 3.58014C20.7926 3.52603 20.8108 3.46291 20.8199 3.39979C20.829 3.33667 20.8381 3.27354 20.8472 3.2014C20.8564 3.12926 20.8563 3.04811 20.8563 2.96695C20.8563 2.72348 20.8381 2.51608 20.8017 2.35376C20.7653 2.19145 20.7197 2.05618 20.6559 1.94798C20.6013 1.84878 20.5375 1.76763 20.4556 1.73156C20.3736 1.69549 20.3098 1.66843 20.237 1.66843C20.1641 1.66843 20.0912 1.69549 20.0184 1.74959C19.9455 1.8037 19.8817 1.90289 19.818 2.03815C19.7633 2.18243 19.7087 2.38081 19.6722 2.64232C19.6358 2.90383 19.6358 3.23747 19.6358 3.65228Z" fill="#B7B7B7"/>
<path d="M25.6687 1.7853C25.5047 1.7853 25.359 1.82137 25.2315 1.88449C25.104 1.94761 24.9947 2.02877 24.9036 2.10993C24.8034 2.20912 24.7214 2.31733 24.6394 2.43456V5.43738L25.1313 5.5546V5.67183H22.8359V5.5546L23.3278 5.43738V1.86646L22.8359 1.74923V1.632H23.5737C23.765 1.632 23.9198 1.66807 24.0474 1.73119C24.1658 1.79432 24.266 1.86646 24.3388 1.93859C24.4208 2.02877 24.4846 2.12796 24.521 2.23617C24.603 2.11894 24.7032 2.01074 24.8216 1.91154C24.9218 1.83039 25.0493 1.75825 25.2042 1.68611C25.359 1.61397 25.5321 1.58691 25.7416 1.58691C26.033 1.58691 26.2517 1.65905 26.3974 1.7853C26.5431 1.92056 26.6069 2.10993 26.6069 2.3534C26.6069 2.53375 26.5522 2.68705 26.4429 2.79526C26.3336 2.90347 26.1788 2.95757 25.9966 2.95757C25.9511 2.95757 25.9146 2.95757 25.8691 2.95757C25.8235 2.95757 25.7962 2.94855 25.7689 2.94855C25.7325 2.93954 25.696 2.93953 25.6687 2.9215V1.7853Z" fill="#B7B7B7"/>
<path d="M30.1294 2.84067C30.1294 2.66032 30.1112 2.49801 30.0747 2.36275C30.0383 2.22749 29.9928 2.11928 29.929 2.03812C29.8744 1.94794 29.8106 1.88482 29.7286 1.84875C29.6558 1.81268 29.5829 1.78563 29.51 1.78563C29.3825 1.78563 29.2732 1.8217 29.1821 1.88482C29.091 1.94794 29.0091 2.0291 28.9544 2.11026C28.8815 2.20945 28.8269 2.31766 28.7722 2.43489V5.43771L29.2641 5.55493V5.67216H26.9688V5.55493L27.4606 5.43771V1.86679L26.9688 1.74956V1.63233H27.7065C27.8978 1.63233 28.0527 1.6684 28.1802 1.73152C28.2986 1.79465 28.3988 1.86679 28.4717 1.93893C28.5536 2.0291 28.6174 2.12829 28.6538 2.2365C28.7267 2.10124 28.8178 1.975 28.9271 1.86679C29.0182 1.77661 29.1457 1.69546 29.2914 1.6143C29.4372 1.53314 29.6284 1.49707 29.847 1.49707C30.0839 1.49707 30.3025 1.53314 30.4938 1.6143C30.6941 1.68644 30.8581 1.79465 30.9947 1.91187C31.1313 2.03812 31.2407 2.17338 31.3226 2.3357C31.4046 2.49801 31.441 2.66032 31.441 2.83166V5.42869L31.9329 5.54592V5.66314H30.8672C30.3753 5.66314 30.1294 5.41967 30.1294 4.93273V2.84067Z" fill="#B7B7B7"/>
<path d="M0.867188 11.3712V11.0376H7.19762V11.3712L5.86778 11.7049V18.5131H10.6407V11.7049L9.31081 11.3712V11.0376H15.6413V11.3712L14.3114 11.7049V25.7722L15.6413 26.1058V26.4394H9.31081V26.0968L10.6407 25.7631V19.0631H5.86778V25.7631L7.19762 26.0968V26.4304H0.867188V26.0968L2.19703 25.7631V11.6959L0.867188 11.3712Z" fill="#B7B7B7"/>
<path d="M23.5091 15.1045C24.4291 15.1045 25.2488 15.2398 25.9775 15.5013C26.7062 15.7628 27.3165 16.1505 27.8266 16.6555C28.3366 17.1605 28.7283 17.7737 28.9925 18.4951C29.2566 19.2165 29.3932 20.028 29.3932 20.9388C29.3932 21.8496 29.2566 22.6611 28.9925 23.3825C28.7283 24.1039 28.3366 24.7081 27.8266 25.2131C27.3165 25.7181 26.6971 26.1058 25.9775 26.3673C25.2488 26.6288 24.4291 26.7641 23.5091 26.7641C22.5892 26.7641 21.7694 26.6288 21.0407 26.3673C20.312 26.1058 19.7018 25.7181 19.1917 25.2131C18.6816 24.7081 18.2899 24.0949 18.0258 23.3825C17.7616 22.6611 17.625 21.8496 17.625 20.9388C17.625 20.028 17.7616 19.2165 18.0258 18.4951C18.2899 17.7737 18.6816 17.1695 19.1917 16.6555C19.7018 16.1415 20.3211 15.7628 21.0407 15.5013C21.7694 15.2398 22.5892 15.1045 23.5091 15.1045ZM23.5091 26.3132C23.7642 26.3132 24.0101 26.2321 24.2651 26.0697C24.5202 25.9074 24.7388 25.6279 24.9392 25.2221C25.1396 24.8163 25.3035 24.2662 25.431 23.5719C25.5586 22.8776 25.6223 21.9938 25.6223 20.9208C25.6223 19.8477 25.5586 18.964 25.431 18.2696C25.3035 17.5753 25.1396 17.0252 24.9392 16.6194C24.7388 16.2136 24.5111 15.9341 24.2651 15.7718C24.0192 15.6095 23.7642 15.5283 23.5091 15.5283C23.2541 15.5283 23.0082 15.6095 22.7531 15.7718C22.4981 15.9341 22.2795 16.2136 22.0791 16.6194C21.8787 17.0252 21.7147 17.5753 21.5872 18.2696C21.4597 18.964 21.3959 19.8477 21.3959 20.9208C21.3959 21.9938 21.4597 22.8776 21.5872 23.5719C21.7147 24.2662 21.8787 24.8163 22.0791 25.2221C22.2795 25.6279 22.5072 25.9074 22.7531 26.0697C23.0082 26.2321 23.2541 26.3132 23.5091 26.3132Z" fill="#B7B7B7"/>
<path d="M46.0344 18.7295C46.0344 18.2065 45.9889 17.7556 45.8978 17.4039C45.8067 17.0522 45.6974 16.7547 45.5517 16.5292C45.406 16.3038 45.2511 16.1415 45.0872 16.0333C44.9141 15.9341 44.7501 15.88 44.5862 15.88C44.3038 15.88 44.0579 15.9701 43.8393 16.1505C43.6207 16.3308 43.4385 16.5382 43.2746 16.7547C43.1015 17.0162 42.9375 17.3137 42.81 17.6294V25.7631L44.149 26.0968V26.4304H37.9369V26.0968L39.2668 25.7631V18.7295C39.2668 18.2065 39.2212 17.7556 39.1301 17.4039C39.0391 17.0522 38.9298 16.7547 38.784 16.5292C38.6383 16.3038 38.4835 16.1415 38.3195 16.0333C38.1464 15.9341 37.9825 15.88 37.8185 15.88C37.5361 15.88 37.2902 15.9701 37.0716 16.1505C36.853 16.3308 36.6708 16.5382 36.5069 16.7547C36.3247 17.0162 36.1699 17.3137 36.0424 17.6294V25.7631L37.3722 26.0968V26.4304H31.1602V26.0968L32.49 25.7631V16.0964L31.1602 15.7627V15.4291H33.1549C33.6741 15.4291 34.1022 15.5193 34.4301 15.6906C34.7671 15.8619 35.0222 16.0603 35.2226 16.2587C35.4412 16.5112 35.6051 16.7817 35.7144 17.0703C35.9057 16.7006 36.1425 16.3759 36.4249 16.0783C36.6799 15.8259 36.9897 15.6004 37.354 15.393C37.7274 15.1856 38.1738 15.0864 38.7112 15.0864C39.5947 15.0864 40.3689 15.2848 41.0065 15.6726C41.6532 16.0603 42.1451 16.5653 42.4821 17.1785C42.6734 16.7997 42.9102 16.4571 43.1926 16.1415C43.4476 15.88 43.7573 15.6365 44.1216 15.4201C44.4951 15.2037 44.9414 15.0864 45.4788 15.0864C46.0891 15.0864 46.6356 15.1856 47.1457 15.375C47.6467 15.5644 48.0839 15.8259 48.4482 16.1595C48.8126 16.4932 49.0949 16.8719 49.2953 17.3137C49.4957 17.7556 49.5959 18.2245 49.5959 18.7205V25.7541L50.9257 26.0877V26.4214H48.0383C46.7085 26.4214 46.0435 25.7631 46.0435 24.4466V18.7295H46.0344Z" fill="#B7B7B7"/>
<path d="M58.2513 26.7548C56.3567 26.7548 54.8811 26.2408 53.8336 25.2038C52.7861 24.1668 52.2578 22.751 52.2578 20.9295C52.2578 20.0188 52.3944 19.2072 52.6586 18.4858C52.9227 17.7644 53.2962 17.1602 53.7698 16.6462C54.2435 16.1412 54.8173 15.7535 55.4914 15.492C56.1654 15.2305 56.9032 15.0952 57.6956 15.0952C58.5245 15.0952 59.2714 15.2124 59.9272 15.4469C60.583 15.6813 61.1478 15.997 61.6032 16.3937C62.0586 16.7905 62.4139 17.2594 62.6598 17.7914C62.9057 18.3235 63.0241 18.8916 63.0241 19.4957C63.0241 19.7031 63.015 19.8835 62.9877 20.0368C62.9604 20.1901 62.9422 20.3253 62.9057 20.4426C62.8602 20.5869 62.8237 20.7131 62.7964 20.8123C62.1406 20.9476 61.4575 21.0558 60.7288 21.1459C60.1094 21.2361 59.3898 21.3083 58.5792 21.3804C57.7685 21.4435 56.9123 21.4796 56.0288 21.4796C56.0288 22.3903 56.0925 23.1478 56.2292 23.752C56.3658 24.3562 56.5479 24.8431 56.7848 25.2038C57.0216 25.5645 57.3039 25.817 57.6319 25.9703C57.9598 26.1236 58.315 26.2047 58.6976 26.2047C59.1439 26.2047 59.5629 26.1236 59.9546 25.9613C60.3462 25.799 60.6832 25.5825 60.9747 25.312C61.2662 25.0415 61.4939 24.7349 61.667 24.3922C61.84 24.0496 61.922 23.6979 61.922 23.3462H62.4776C62.4776 23.7881 62.3774 24.2119 62.177 24.6177C61.9767 25.0325 61.6943 25.3932 61.3208 25.7088C60.9474 26.0244 60.5102 26.2769 59.991 26.4662C59.4627 26.6556 58.8797 26.7548 58.2513 26.7548ZM56.0288 20.9295C56.5297 20.9295 56.9761 20.9205 57.3586 20.8935C57.7412 20.8664 58.0691 20.8484 58.3332 20.8213C58.6429 20.7943 58.9071 20.7582 59.1348 20.7131C59.1621 20.5688 59.1985 20.4065 59.2441 20.2262C59.2714 20.0638 59.2987 19.8835 59.3169 19.6851C59.3352 19.4867 59.3534 19.2793 59.3534 19.0629C59.3534 18.4046 59.2987 17.8546 59.1985 17.4037C59.0983 16.9528 58.9617 16.5921 58.8069 16.3126C58.652 16.033 58.4699 15.8346 58.2786 15.7174C58.0782 15.6002 57.8778 15.5371 57.6865 15.5371C57.4952 15.5371 57.2948 15.6092 57.0945 15.7445C56.8941 15.8888 56.721 16.1503 56.5662 16.538C56.4113 16.9258 56.2838 17.4758 56.1745 18.1792C56.0834 18.8826 56.0288 19.8023 56.0288 20.9295Z" fill="#B7B7B7"/>
<path d="M73.9218 26.2048V17.2865L65.9609 11.0464V26.2048H73.9218Z" fill="#B7B7B7"/>
<path d="M83.7709 26.2048V17.2865L75.9375 11.0464V26.2048H83.7709Z" fill="#B7B7B7"/>
</svg>
