<svg width="151" height="25" viewBox="0 0 151 25" fill="none" xmlns="http://www.w3.org/2000/svg">
<g clip-path="url(#clip0_458_3060)">
<path d="M39.5614 4.20654C40.5515 4.20654 41.4434 4.32521 42.2371 4.56317C43.0307 4.8005 43.7057 5.1431 44.262 5.58905C44.8183 6.03563 45.2458 6.57983 45.5444 7.22291C45.8429 7.86536 45.9929 8.5901 45.9929 9.39651H42.72C42.72 9.02584 42.6435 8.6909 42.4903 8.39233C42.3372 8.09375 42.1203 7.83984 41.8396 7.63122C41.5589 7.4226 41.222 7.26247 40.8297 7.15082C40.4373 7.03917 39.9997 6.98367 39.5174 6.98367C39.2507 6.98367 38.9885 7.00153 38.7288 7.0379C38.4698 7.07362 38.2248 7.12785 37.9945 7.19994C37.7642 7.27204 37.5517 7.36199 37.3572 7.46981C37.1626 7.57763 36.9942 7.70395 36.8519 7.84813C36.7096 7.99231 36.5986 8.15436 36.5195 8.33427C36.4404 8.51418 36.4008 8.71196 36.4008 8.92823C36.4008 9.23446 36.4755 9.48391 36.6248 9.67594C36.7741 9.86861 36.9954 10.0262 37.2889 10.1487C37.5824 10.2712 37.9447 10.372 38.3773 10.4511C38.8092 10.5302 39.3081 10.6112 39.8734 10.6942L40.505 10.786C40.8291 10.8326 41.1621 10.8843 41.504 10.9398C41.846 10.9959 42.1879 11.0629 42.5299 11.142C42.8719 11.2211 43.2074 11.3168 43.5373 11.4285C43.8665 11.5401 44.1791 11.6754 44.4745 11.8336C44.7698 11.9918 45.0416 12.1781 45.2898 12.3925C45.538 12.6068 45.753 12.8563 45.9348 13.1402C46.1166 13.4247 46.2576 13.7488 46.3591 14.1125C46.4599 14.4761 46.5103 14.8863 46.5103 15.3438C46.5103 16.154 46.3489 16.8673 46.0267 17.4848C45.7045 18.1024 45.2471 18.6191 44.655 19.0345C44.063 19.4504 43.3472 19.7643 42.5082 19.9768C41.6693 20.1892 40.7334 20.2951 39.6998 20.2951C38.5872 20.2951 37.6009 20.1745 36.7402 19.9334C35.8796 19.6922 35.1555 19.3433 34.5666 18.8858C33.9778 18.4284 33.5306 17.8695 33.225 17.2092C32.9187 16.5489 32.7656 15.7986 32.7656 14.9603H36.0385C36.0385 15.3597 36.122 15.7182 36.2898 16.0347C36.457 16.3518 36.6981 16.6197 37.0133 16.8392C37.3285 17.0586 37.7106 17.2271 38.161 17.3438C38.6108 17.4606 39.1167 17.5193 39.6788 17.5193C40.1573 17.5193 40.6064 17.4759 41.0262 17.3898C41.446 17.3036 41.8109 17.1722 42.1222 16.9955C42.4336 16.8194 42.6792 16.5993 42.8591 16.3365C43.039 16.0736 43.129 15.7661 43.129 15.4133C43.129 15.0605 43.053 14.8027 42.9018 14.598C42.7506 14.3925 42.5299 14.2273 42.2403 14.101C41.9506 13.9753 41.5978 13.8751 41.1819 13.8011C40.7659 13.7271 40.2938 13.6525 39.7643 13.5772L38.9489 13.4585C38.524 13.3973 38.0832 13.3297 37.6258 13.2563C37.1683 13.1823 36.7205 13.0828 36.2809 12.9564C35.842 12.8308 35.4241 12.67 35.0279 12.476C34.6317 12.2815 34.2847 12.0333 33.9854 11.7309C33.6862 11.4285 33.4502 11.0648 33.2754 10.6399C33.1006 10.215 33.0132 9.70912 33.0132 9.12218C33.0132 8.58564 33.0891 8.09248 33.2403 7.6427C33.3915 7.19293 33.6065 6.78589 33.8859 6.42225C34.1647 6.0586 34.5016 5.73897 34.8958 5.46336C35.2901 5.18776 35.7303 4.95681 36.2165 4.76924C36.7026 4.58231 37.227 4.44196 37.7904 4.34817C38.3537 4.25439 38.9432 4.20782 39.5588 4.20782L39.5614 4.20654Z" fill="black"/>
<path d="M50.827 6.81479H47.5273V3.98535H50.827V6.81479ZM50.7944 19.9699H47.5599V8.06268H50.7944V19.9699Z" fill="black"/>
<path d="M55.4123 19.9696H52.1777V8.06237H55.4123V11.6427C55.538 11.013 55.7236 10.4548 55.9686 9.96866C56.2136 9.48252 56.5122 9.07485 56.865 8.74565C57.2178 8.41645 57.6235 8.16637 58.0829 7.99475C58.5416 7.82377 59.0469 7.73828 59.5974 7.73828C60.238 7.73828 60.8045 7.85376 61.2957 8.08407C61.787 8.31438 62.2004 8.65378 62.5353 9.10228C62.8703 9.55078 63.1229 10.1058 63.2939 10.768C63.4649 11.4303 63.5504 12.192 63.5504 13.0527V19.9703H60.3158V13.5924C60.3158 11.5655 59.5451 10.5518 58.0044 10.5518C57.5904 10.5518 57.2229 10.6213 56.9026 10.7598C56.5823 10.8982 56.3112 11.1017 56.0898 11.3703C55.8684 11.6383 55.7 11.97 55.5845 12.3636C55.4691 12.7579 55.4117 13.2109 55.4117 13.7219V19.9703L55.4123 19.9696Z" fill="black"/>
<path d="M68.1115 19.9696H64.877V8.06237H68.1115V11.6427C68.2372 11.013 68.4228 10.4548 68.6678 9.96866C68.9128 9.48252 69.2114 9.07485 69.5642 8.74565C69.917 8.41645 70.3227 8.16637 70.7821 7.99475C71.2408 7.82377 71.7461 7.73828 72.2967 7.73828C72.9372 7.73828 73.5037 7.85376 73.995 8.08407C74.4862 8.31438 74.8996 8.65378 75.2346 9.10228C75.5695 9.55078 75.8221 10.1058 75.9931 10.768C76.1641 11.4303 76.2496 12.192 76.2496 13.0527V19.9703H73.015V13.5924C73.015 11.5655 72.2443 10.5518 70.7036 10.5518C70.2896 10.5518 69.9221 10.6213 69.6018 10.7598C69.2816 10.8982 69.0104 11.1017 68.789 11.3703C68.5677 11.6383 68.3992 11.97 68.2838 12.3636C68.1683 12.7579 68.1109 13.2109 68.1109 13.7219V19.9703L68.1115 19.9696Z" fill="black"/>
<path d="M89.0593 15.9358C88.8973 16.6127 88.6446 17.2201 88.3008 17.7585C87.9569 18.297 87.5384 18.7538 87.0452 19.1302C86.5521 19.5066 85.9932 19.7943 85.3686 19.994C84.744 20.1937 84.0697 20.2939 83.3462 20.2939C82.7484 20.2939 82.1845 20.2256 81.653 20.0884C81.1222 19.9519 80.6342 19.7548 80.1895 19.497C79.7448 19.2399 79.3455 18.9254 78.9907 18.5547C78.636 18.1841 78.3362 17.7656 78.0918 17.2992C77.8468 16.8328 77.6586 16.3237 77.5272 15.7706C77.3958 15.2181 77.3301 14.6286 77.3301 14.0021C77.3301 13.3756 77.3952 12.7919 77.5247 12.2387C77.6542 11.6862 77.8405 11.1778 78.0835 10.7133C78.3266 10.2489 78.6226 9.83292 78.9716 9.46608C79.3206 9.0986 79.7161 8.78727 80.157 8.53208C80.5978 8.27625 81.0814 8.08039 81.6071 7.94322C82.1328 7.80669 82.691 7.73779 83.2812 7.73779C84.1597 7.73779 84.9578 7.88644 85.6761 8.1831C86.3945 8.47976 87.0082 8.90147 87.5173 9.44694C88.0264 9.99241 88.4201 10.6495 88.6976 11.4183C88.9745 12.1871 89.1136 13.0426 89.1136 13.9862C89.1136 14.1303 89.111 14.2752 89.1053 14.4206C89.1002 14.5667 89.088 14.7147 89.0702 14.8659H80.4568C80.5072 15.3125 80.6125 15.7113 80.7726 16.0622C80.9328 16.413 81.1401 16.7103 81.3934 16.9534C81.6473 17.1965 81.9459 17.3828 82.2897 17.5123C82.6336 17.6418 83.0158 17.7069 83.4375 17.7069C84.071 17.7069 84.6011 17.5582 85.0279 17.2616C85.4548 16.9643 85.7865 16.5228 86.0245 15.9358H89.0593ZM86.0085 12.8684C85.8714 12.0116 85.5766 11.3666 85.123 10.9322C84.6694 10.4983 84.0608 10.2814 83.2977 10.2814C82.9124 10.2814 82.5615 10.3388 82.2444 10.4543C81.9274 10.5698 81.6505 10.7369 81.4125 10.9564C81.1752 11.1759 80.978 11.447 80.8211 11.7692C80.6642 12.0914 80.5538 12.4576 80.4887 12.8684H86.0079H86.0085Z" fill="black"/>
<path d="M97.3922 13.9326L101.577 19.9698H97.819L94.8977 15.5198L92.0575 19.9698H88.5039L92.5053 13.9702L88.5524 8.0625H92.2999L95.0056 12.4205L97.657 8.0625H101.211L97.3929 13.9326H97.3922Z" fill="black"/>
<path d="M114.938 7.43026H110.142V19.9698H106.729V7.43026H101.934V4.5249H114.938V7.43026H114.938Z" fill="black"/>
<path d="M125.798 15.9358C125.636 16.6127 125.383 17.2201 125.039 17.7585C124.695 18.297 124.277 18.7538 123.784 19.1302C123.29 19.5066 122.731 19.7943 122.107 19.994C121.482 20.1937 120.808 20.2939 120.085 20.2939C119.487 20.2939 118.923 20.2256 118.391 20.0884C117.861 19.9519 117.372 19.7548 116.928 19.497C116.483 19.2399 116.084 18.9254 115.729 18.5547C115.374 18.1841 115.074 17.7656 114.83 17.2992C114.585 16.8328 114.397 16.3237 114.266 15.7706C114.134 15.2181 114.068 14.6286 114.068 14.0021C114.068 13.3756 114.133 12.7919 114.263 12.2387C114.392 11.6862 114.579 11.1778 114.822 10.7133C115.065 10.2489 115.361 9.83292 115.71 9.46608C116.059 9.0986 116.454 8.78727 116.895 8.53208C117.336 8.27625 117.82 8.08039 118.345 7.94322C118.871 7.80669 119.429 7.73779 120.019 7.73779C120.898 7.73779 121.696 7.88644 122.414 8.1831C123.133 8.47976 123.747 8.90147 124.256 9.44694C124.765 9.99241 125.158 10.6495 125.436 11.4183C125.713 12.1871 125.852 13.0426 125.852 13.9862C125.852 14.1303 125.849 14.2752 125.844 14.4206C125.838 14.5667 125.826 14.7147 125.808 14.8659H117.195C117.245 15.3125 117.351 15.7113 117.511 16.0622C117.671 16.413 117.878 16.7103 118.132 16.9534C118.386 17.1965 118.684 17.3828 119.028 17.5123C119.372 17.6418 119.754 17.7069 120.176 17.7069C120.809 17.7069 121.339 17.5582 121.766 17.2616C122.193 16.9643 122.525 16.5228 122.763 15.9358H125.798ZM122.747 12.8684C122.61 12.0116 122.315 11.3666 121.861 10.9322C121.408 10.4983 120.799 10.2814 120.036 10.2814C119.651 10.2814 119.3 10.3388 118.983 10.4543C118.666 10.5698 118.389 10.7369 118.151 10.9564C117.913 11.1759 117.716 11.447 117.559 11.7692C117.402 12.0914 117.292 12.4576 117.227 12.8684H122.746H122.747Z" fill="black"/>
<path d="M129.995 14.0135C129.995 14.564 130.058 15.0546 130.183 15.4853C130.309 15.9153 130.492 16.2776 130.729 16.5705C130.966 16.8639 131.258 17.0879 131.604 17.2429C131.949 17.3979 132.342 17.4751 132.781 17.4751C133.148 17.4751 133.473 17.4203 133.755 17.3105C134.038 17.2008 134.281 17.0483 134.485 16.8544C134.688 16.6598 134.855 16.4276 134.984 16.1577C135.114 15.8878 135.209 15.5905 135.271 15.2664H138.494C138.433 15.7558 138.323 16.2202 138.165 16.6598C138.007 17.0987 137.804 17.5051 137.558 17.8777C137.311 18.2503 137.023 18.5859 136.694 18.8851C136.365 19.1836 135.998 19.4376 135.595 19.6462C135.192 19.8548 134.754 20.0149 134.282 20.1266C133.811 20.2382 133.309 20.2937 132.775 20.2937C131.886 20.2937 131.071 20.1444 130.332 19.8452C129.592 19.5466 128.956 19.1237 128.423 18.5763C127.89 18.0289 127.476 17.3692 127.181 16.5973C126.886 15.8253 126.738 14.9634 126.738 14.0135C126.738 13.3799 126.805 12.7847 126.938 12.2284C127.071 11.6721 127.263 11.1617 127.513 10.6972C127.763 10.2328 128.067 9.81809 128.423 9.45253C128.779 9.08697 129.18 8.77755 129.627 8.52363C130.074 8.26972 130.561 8.07513 131.091 7.94052C131.619 7.80527 132.182 7.73828 132.775 7.73828C133.575 7.73828 134.305 7.86141 134.965 8.10831C135.625 8.35521 136.201 8.70035 136.693 9.14503C137.185 9.5897 137.585 10.1199 137.892 10.7355C138.2 11.3512 138.401 12.0281 138.494 12.7662H135.271C135.209 12.4421 135.115 12.1454 134.987 11.8749C134.86 11.6051 134.693 11.3729 134.488 11.1783C134.282 10.9837 134.039 10.8318 133.756 10.7221C133.473 10.6124 133.149 10.5575 132.781 10.5575C132.342 10.5575 131.949 10.6341 131.604 10.7872C131.258 10.9403 130.967 11.1642 130.729 11.4596C130.492 11.755 130.31 12.1167 130.184 12.5448C130.058 12.9735 129.995 13.4629 129.995 14.0135H129.995Z" fill="black"/>
<path d="M142.862 19.9699H139.627V3.98535H142.862V11.6373C142.987 11.0076 143.173 10.45 143.418 9.96577C143.663 9.48155 143.961 9.07452 144.314 8.74532C144.667 8.41612 145.073 8.16603 145.532 7.99442C145.991 7.82344 146.496 7.73795 147.047 7.73795C147.687 7.73795 148.254 7.85342 148.745 8.08373C149.236 8.31404 149.65 8.65345 149.985 9.10195C150.319 9.55045 150.572 10.1055 150.743 10.7677C150.914 11.4299 151 12.1917 151 13.0523V19.9699H147.765V13.592C147.765 12.577 147.574 11.8166 147.193 11.3106C146.811 10.8047 146.231 10.5521 145.454 10.5521C145.04 10.5521 144.672 10.6216 144.352 10.7601C144.032 10.8985 143.76 11.102 143.539 11.3706C143.318 11.6386 143.149 11.9703 143.034 12.3639C142.918 12.7582 142.861 13.2112 142.861 13.7222V19.9706L142.862 19.9699Z" fill="black"/>
</g>
<g clip-path="url(#clip1_458_3060)">
<path d="M28.3404 9.52185C28.3404 12.0163 27.3474 14.3607 25.5447 16.1229L18.1525 23.3493C17.4888 23.9979 16.6084 24.3552 15.6726 24.3552C14.7368 24.3552 13.8559 23.9979 13.1927 23.3493C12.5244 22.6965 12.1565 21.8268 12.1565 20.9013C12.1565 19.9758 12.5244 19.1061 13.1927 18.4533L15.047 16.6405C13.5085 17.7615 11.6486 18.3994 9.70959 18.4566C9.61611 18.4594 9.5217 18.4608 9.42775 18.4608C9.17613 18.4608 8.92219 18.451 8.6701 18.4315C7.05901 18.307 5.50094 17.7736 4.16425 16.89C3.74287 16.6117 3.34196 16.2976 2.97175 15.957C2.48386 15.5078 2.04434 15.0079 1.66482 14.4712C0.633706 13.0115 0.0597775 11.2962 0.004431 9.5093C-0.0718448 7.04134 0.838814 4.69372 2.56851 2.89757C4.29401 1.10607 6.62833 0.0783732 9.14171 0.00403705C10.984 -0.0503212 12.775 0.413815 14.3331 1.34766C15.6526 0.622885 17.1335 0.222864 18.645 0.196382C20.6714 0.162001 22.6202 0.742752 24.2662 1.8708C24.7201 2.18209 25.1508 2.53565 25.5447 2.9208C25.9819 3.34777 26.3773 3.81702 26.721 4.316C27.7804 5.8529 28.34 7.65322 28.34 9.52185H28.3404Z" fill="#8974EB"/>
<path d="M19.7317 8.86917C19.7165 9.19497 19.5791 9.51601 19.3205 9.76025L15.0186 13.8303C14.8914 13.9509 14.7674 14.0744 14.6443 14.1984C14.592 14.2509 14.5389 14.3033 14.4843 14.3547C14.3757 14.4576 14.2645 14.5557 14.1506 14.6513C12.8042 15.7784 11.1038 16.3784 9.31449 16.3481C9.04326 16.3434 8.77505 16.324 8.51026 16.2912C7.2664 16.1366 6.0974 15.6743 5.09736 14.9437C4.78396 14.7151 4.48714 14.4604 4.21012 14.1805C3.84595 13.8125 3.52701 13.413 3.25578 12.9887C2.52154 11.8397 2.13897 10.508 2.16071 9.12256C2.19048 7.22539 2.97422 5.45445 4.36727 4.13649C5.69064 2.88506 7.41255 2.18331 9.24464 2.14434C9.34204 2.14236 9.43938 2.14177 9.53754 2.14355C9.67107 2.14557 9.8035 2.15127 9.93578 2.16021C10.6547 2.20946 11.2261 2.79556 11.2198 3.4999C11.2195 3.51802 11.2191 3.53614 11.2182 3.55424C11.2174 3.57234 11.2166 3.58905 11.2149 3.60618C11.1546 4.32987 10.4934 4.86142 9.75274 4.80837C9.63998 4.80034 9.52609 4.79643 9.4111 4.7962C9.33426 4.79635 9.25828 4.79839 9.1822 4.8023C6.8483 4.91885 4.95648 6.77871 4.87735 9.08567C4.85316 9.79429 5.00006 10.4686 5.28059 11.0727C5.66484 11.899 6.29881 12.5922 7.09002 13.0583C7.75388 13.4496 8.52768 13.68 9.35624 13.6943C9.95964 13.7047 10.5377 13.5991 11.0681 13.3986C11.6311 13.1858 12.1405 12.856 12.5745 12.4459L12.8234 12.2105L16.6596 8.58117L17.4311 7.85149C17.9693 7.34258 18.8286 7.35697 19.3506 7.8845C19.6219 8.15804 19.7486 8.51694 19.7321 8.86966L19.7317 8.86917Z" fill="white"/>
<path d="M12.7078 5.39654L9.3293 8.69892C8.79909 9.21695 8.79909 10.0574 9.3293 10.5754C9.85951 11.0935 10.719 11.0935 11.2492 10.5754L14.7072 7.19547L15.5276 6.39357C15.916 6.01353 16.3569 5.71572 16.8276 5.49875C18.1698 4.8799 19.7549 4.92265 21.0632 5.62837C21.4367 5.82955 21.7878 6.08461 22.1041 6.39404C22.4557 6.73738 22.7385 7.123 22.9538 7.5337C23.8491 9.2425 23.5659 11.3936 22.1041 12.8227L14.7114 20.0491C14.1812 20.5671 14.1812 21.4076 14.7114 21.9256C15.2416 22.4437 16.1011 22.4437 16.6313 21.9256L24.024 14.6992C25.4151 13.3394 26.1811 11.5316 26.1811 9.60815C26.1811 8.15813 25.7453 6.77362 24.9347 5.59725C24.67 5.21349 24.3659 4.85156 24.024 4.51751C23.7152 4.21552 23.3831 3.94373 23.0329 3.70353C21.8055 2.86214 20.3465 2.40869 18.8163 2.40869C18.7717 2.40869 18.727 2.40869 18.6824 2.40962C16.9964 2.43889 15.3811 3.07725 14.1203 4.17185L12.7082 5.397L12.7078 5.39654Z" fill="white"/>
</g>
<defs>
<clipPath id="clip0_458_3060">
<rect width="118.232" height="16.3087" fill="white" transform="translate(32.7676 3.98535)"/>
</clipPath>
<clipPath id="clip1_458_3060">
<rect width="28.3402" height="24.3548" fill="white"/>
</clipPath>
</defs>
</svg>
