<svg width="59" height="56" viewBox="0 0 59 56" fill="none" xmlns="http://www.w3.org/2000/svg">
<circle cx="32" cy="29" r="26.5" fill="black" stroke="white"/>
<circle cx="27" cy="27" r="26.5" fill="white" stroke="black"/>
<path d="M27.004 12.39C29.86 12.39 32.142 13.174 33.85 14.742C35.586 16.31 36.454 18.452 36.454 21.168C36.454 23.996 35.558 26.124 33.766 27.552C31.974 28.98 29.594 29.694 26.626 29.694L26.458 33.012H22.3L22.09 26.418H23.476C26.192 26.418 28.264 26.054 29.692 25.326C31.148 24.598 31.876 23.212 31.876 21.168C31.876 19.684 31.442 18.522 30.574 17.682C29.734 16.842 28.558 16.422 27.046 16.422C25.534 16.422 24.344 16.828 23.476 17.64C22.608 18.452 22.174 19.586 22.174 21.042H17.68C17.68 19.362 18.058 17.864 18.814 16.548C19.57 15.232 20.648 14.21 22.048 13.482C23.476 12.754 25.128 12.39 27.004 12.39ZM24.316 42.294C23.448 42.294 22.72 42 22.132 41.412C21.544 40.824 21.25 40.096 21.25 39.228C21.25 38.36 21.544 37.632 22.132 37.044C22.72 36.456 23.448 36.162 24.316 36.162C25.156 36.162 25.87 36.456 26.458 37.044C27.046 37.632 27.34 38.36 27.34 39.228C27.34 40.096 27.046 40.824 26.458 41.412C25.87 42 25.156 42.294 24.316 42.294Z" fill="black"/>
</svg>
